<?xml version="1.0" encoding="UTF-8"?>
<svg id="Calque_1" xmlns="http://www.w3.org/2000/svg" version="1.1" viewBox="0 0 1109.12 609.17" fill="white">
  <!-- Generator: Adobe Illustrator 29.5.1, SVG Export Plug-In . SVG Version: 2.1.0 Build 141)  -->
  <path id="_x3C_D_x3E_" d="M248.95,111.49c-1.1,1.1-7.4,19.06-7.66,21.42-.68,6.3,2.29,11.03,2.27,16.89-.03,14.72-32.31,85.79-39.74,106.02-19.6,53.37-37.31,107.44-57.85,160.46-10.15,20.17-46.34,21.91-50.54-3.14-3.63-21.69,7-58.01,12.6-79.96,14.85-58.22,37.89-113.95,60-169.57-48.74,37.69-84.78,88.54-125.41,134.38-15.61,8.56-15.56-28.11-14.43-37.14,11.14-89.14,156.08-211.4,244.05-217.65,64.49-4.58,122.99,37.93,129.15,104.14,11.15,119.87-127.54,324.35-245.37,354.28-47.48,12.06-92.82-1.62-83.49-58.42l5.98-3.14c29.19,18.25,63.67-6.39,87.83-23.47,67.99-48.07,143.9-143.59,163.58-225.37,6.88-28.61,16.04-90.69-27.7-92.97-7.7-.4-48.84,8.81-53.27,13.25Z"/>
  <path id="_x3C_e_x3E_" d="M647.23,319.27c15.41,10.71-27.71,69.86-37.46,79.01-44.13,41.43-118.52,39.87-125.5-30.19-7.44-74.7,73.52-261.61,169.87-210.02,35.87,19.21,27.5,55.62,12.92,86.73-18.43,39.33-69.09,75.18-112.72,77.99-19.18,65.51,15.42,58.42,54.03,26.43,6.54-5.42,31.02-35.4,38.85-29.95ZM567.07,274c22.9.16,67.19-51.78,65.25-71.43-.54-5.48-5.12-9.27-10.69-8.49-23.56,3.33-47.98,59.15-54.56,79.92Z"/>
  <path id="_x3C_l_x3E_" d="M840.05,13.59c13.8-1.35,49.25,8.33,44.64,27.05-49.45,73.66-96.65,149.62-128.81,232.75-9.24,23.89-32.49,82.62-21.23,105.31,6.16,12.42,24.2,14.54,2.86,29.39-30.51,21.23-68.14,4.16-72.31-32.71-8.75-77.47,80.69-250.1,125.65-315.43,11.84-17.2,27.06-44.19,49.19-46.35Z"/>
  <path id="_x3C_o_x3E_" d="M905.26,136.58c26.79-2.83,47.43,14.29,55.05,39.02,19.4,62.92-19.78,184.72-77.86,219.35-45.3,27.02-94.32,13.99-101.47-42.53-7.91-62.53,52.58-208.24,124.27-215.83ZM920.87,235.12c1.5-13.33,0-31.17,0-45.17,0-9.03-13.42-3.98-18.4-.82-27.16,17.27-68.99,127.08-57.05,156.57,3.33,8.22,6.3,10.03,14.48,6.69,26.49-10.84,57.88-89.73,60.98-117.27Z"/>
  <path d="M427.14,551.93c-9.53-9.76,6.23-53.73,15.62-62.2,4.31-3.89,10.47-5.19,15.88-6.7,33.89-9.47,84.05-13.64,120.01-18,74.81-9.06,150.25-14.83,225.5-17.9,34.03-1.39,73.96-6.45,107.97-2.53,6.09.7,12.57,1.86,13.83,8.89,3.39,18.9-18.22,23.17-32.13,25.6-61.52,10.75-129.22,14.19-192.11,23.69-88.91,13.43-177.2,30.89-264.61,51.66l-9.97-2.51Z"/>
  <g id="_x3C_j_x3E_">
    <path d="M460.94,161.61c17.99-5.42,50.65,13.57,43.18,35.65-32.97,86.56-59.29,179.86-97.23,264.14-22.73,50.48-82.58,165.66-152.24,113.73-18.72-13.95-34.81-53.1-21.36-74.12,9.01-5.49,36.15,19.28,56.31,16.33,20.99-3.07,42.58-46.31,51.27-64.26,40.91-84.56,60.64-185.18,102.8-268.58,3.42-6.76,9.58-20.58,17.27-22.89Z"/>
    <path d="M523.53,127.6c-21.25,19.78-60.7,5.93-59.43-25.35,1.4-34.42,40.21-67.67,70.17-40.11,16.82,15.47,3.83,51.9-10.75,65.46Z"/>
  </g>
  <g id="footer-star">
    <path id="_x3C_star_x3E_1" data-name="_x3C_star_x3E_" d="M1033.82,238.88c-3.32-16.21-8.87-35.92-24.25-44.79-7.96-4.59-15.65-4.12-23.49-6.74-3.5-1.17-5.83.04-5.03-4.94,1.36-8.41,14.95-7.85,21.84-10.8,24.99-10.71,21.46-18.66,29.77-40.61,3.39-8.94,7.85-6.76,11.36,1.04,7.75,17.21,4.65,28.55,26.79,38.45,5.36,2.4,27.33,4.82,25.68,11.91-22.45,10.6-37.22,9.55-48.14,34.69-3.74,8.62-1.87,23.85-14.55,21.8Z"/>
  </g>
</svg>