<?xml version="1.0" encoding="UTF-8"?>
<svg id="Calque_1" xmlns="http://www.w3.org/2000/svg" version="1.1" viewBox="0 0 446.47 679.41">
  <!-- Generator: Adobe Illustrator 29.5.1, SVG Export Plug-In . SVG Version: 2.1.0 Build 141)  -->
  <path d="M320.25,323.52l-5.72,24.62c9.16-4.33,7.35-16.25,7.36-24.62,3.08-.31,10.49,7.8,11.48,9.84.17.36-.1,1.06,0,1.64.02.12-1.22.96-1.11,2.11.4,4.19,1.52,6.88.98,11.68-.85,7.58-10.66,27.64-19.56,27.21-4.4-.21-7.72-4.15-11.02-4.63-.53-.08-9.35,1.11-10.3,1.35l8.19-9.81c-16.94-6.5-23.51-27.81-26.24-44.32-4.41-5.69-3.16,13.27-3.27,14.77l-10.51-3.41c-3.39,5.45-8.86,9.59-9.2,16.54-11.82.09-19.64-10.52-24.86-20.21-2.96-5.5-4.72-11.51-6.26-17.52,6.82-10.87,12.11-23.85,18.29-35.01,2.85-5.15,11.54-13.13,9.59-19.11v-1.64c13.11,5.49,20.3,6.48,32.02,16.36,9.97,8.41,32.19,37.1,38.28,48.7.94,1.79,1.86,3.34,1.87,5.46ZM313.69,349.77c-1.65-1.67-6.58,3.2-4.9,4.9s6.58-3.2,4.9-4.9Z" fill="#357078"/>
  <path d="M28.34,384.2l-3.28,9.82,40.82,17.88c.4-3.53,3.78-5.67,5.11-8.02.44,3.23-.71,6.05-1.59,9.05-3.35,11.5-19.25,53.32-19.36,60.94-.05,3.5,6.72,21.29,7.67,27.75.79,5.34,2.68,26.58,1.47,30.66-.6,2.02-2.18,3.44-4.11,4.2-7.64,2.13-11.41-10.4-15.23-16.17-.72-1.08-3.68-4.56-3.29-4.9,12.38,1.48-2.73-10.81-7.06-9.71-6.97,1.78-15.62,27.02-12.6,34.28l6.53-6.55,13.14,24.6c-8.36,3.5-6.4,7.84-17.22,0-30.36-22.01-16.92-53.26-12.74-83.25,2.54-18.25,3.99-36.71,7.52-54.8,1.78-9.11,9.89-32.67,9.32-39.06,2.2.34,3.43,2.33,4.92,3.28ZM23.41,543.29h-3.26v3.26h3.26v-3.26ZM26.69,548.21h-3.26v3.26h3.26v-3.26ZM29.97,553.13h-3.26v3.26h3.26v-3.26Z" fill="#ed9961"/>
  <path d="M205.46,8.64c.5.18,1.2-.19,1.64,0,.63,1.49,3.05,3.65,3.28,4.92-1.08.06-2.2-.09-3.28,0-7.32.64-6.2,3.8-11.02,6.2-13.84,6.89-36.75,6.19-33.16,30.59,1.92,13.08,10.84,12.32,19.05,17.04,6.46,3.72,12.41,10.05,20.2,10.12l.02-16.4,4.91.02c-10.33,20.21,24.97,17.47,30.35,6.56s-16.54-34.22-27.07-37.73c.33-3.83.32-9.29,0-13.12,10.44.17,18.44,9.96,27.88,13.12,20.19,17.59,29.16,33.81,31.16,60.68-1.23,2.76-2.78,2.86-5.19,3.81-32.05,12.7-43.01,13.96-77.19,3.94-19.01-5.57-25.06-11.79-37.34-25.8-1.06-9.64,2.56-54.05-3.28-59.04-.37-3.65,2.8-4.21,5.4-5.2,15.61-5.96,38-5.42,53.64.28Z" fill="#fca537"/>
  <path d="M269.41,513.76h1.64c.34,55.02,2.52,109.8,4.95,164.69-.29,1.83-4.72.85-6.59.96-1.45-15.77-21.78-2.76-28.47-16.55-5.84-12.02-2.89-18.68-4.35-30.16-1.96-15.38-5.75-32.12-6.61-47.51-.76-13.69,1.14-44.96,7.96-56.16,5.87-9.63,12.81-16.36,22.42-7.06,4.3-3.41,2.23-9.97,9.05-8.21Z" fill="#3a4f5e"/>
  <path d="M169.38,480.96c17.43,3.38,12.46-1.37,22.16-3.26,10.89-2.12,30.65-.95,42.6-1.68,7.77-.48,20.98-3.79,27.96-3.45,3.52.17,1.39,6.06,7.31,1.83.04,2.18,0,4.37,0,6.56l-3.29.83v4.08s3.29,0,3.29,0v27.88c-6.82-1.77-4.75,4.8-9.05,8.21-9.61-9.3-16.55-2.57-22.42,7.06-6.83,11.19-8.73,42.46-7.96,56.16.86,15.39,4.65,32.13,6.61,47.51,1.46,11.48-1.48,18.14,4.35,30.16,6.7,13.79,27.02.78,28.47,16.55-12.09.71-25.47.05-37.72,0,.1-9.41-5.22-18.2-6.38-27.24-4.53-35.29-11.38-74.08-4.71-109.32,1.63-8.63,11.98-21.48,4.63-28.37-3.6-3.37-19.82-4.67-26.35-6.45-5.44-1.48-14.75-6.75-19-7.38s-9.53,2.58-12.15.91l-6.56-13.44,3.28-7.17c1.5.28,3.44-.29,4.92,0Z" fill="#334858"/>
  <path d="M113.62,679.41c-2.07-13.39-5.07-26.52-4.99-40.25.1-17.08,4.3-66.51,11.85-79.99,4.01-7.17,11.8-16.48,21.05-11.8.93.47,9.09,15.14,9.47,16.76,1.75,7.38.98,32.16,3.45,35.6l6.72.97,3.29-9.85c-2.08,29.18-5.61,58.43-8.02,87.61-1.31,1.83-36.91.96-42.82.95Z" fill="#344a5b"/>
  <path d="M77.54,266.12l9.63,4.31c-1.26,15.24,1.33,25.57,6.44,39.47,6,16.31,13.73,32.28,20.32,48.56,3.82,9.44,1.94,23.18,16.56,19.2,1.62-.44,1.65-3.13,2.88-3.96s2.85-.72,3.2-.99c-7.24,14.39-18.75,24.87-27.88,37.72-3.32-.16-4.84-1.54-6.15-4.51-4.68-10.59-7.03-30.76-11.51-42.61-1.22-3.21-7.04-15.45-11.86-13.56-.58-7.62-.75-16.3-1.64-23.81-.29-2.44-1.3-5.02-3.28-2.42,1.91,15.22-2.45,29.6-4.93,44.27-15.16.27-23.11-5.81-19.34-21.81.69-2.96,3.59-4.9,4.14-7.34,3.24-14.37,4.66-29.52,8.67-43.81l-11.5,4.08c3.66-11.7,10.79-22.18,20.13-29.95,2.13-1.77,4.82-1.97,6.11-2.85Z" fill="#2c6169"/>
  <path d="M139.86,26.68c1.54,9.02,5.16,18.58,6.35,28.91.57,5-.78,12.25.12,16.05.46,1.93,3.11.67,3.37.96,12.29,14.01,18.33,20.22,37.34,25.8,34.18,10.02,45.14,8.76,77.19-3.94,2.4-.95,3.96-1.06,5.19-3.81,1.15,15.51,1.39,8.12,9.84,16.4l1.63,8.18c-1.38.38-4.08-.41-4.91.02-2.23-1.4-3.26-3.66-6.46-2.53-5.08,1.78-12.24,6.92-18.91,9.15s-13.67,3.63-20.55,4.86c.86-4.94-2.33-3.36-5.5-3.08-26.59,2.32-37.83,5.78-63.22-7.74-32.45-17.27-52.06-60.38-21.48-89.22Z" fill="#fc9930"/>
  <path d="M220.22,308.76c1.54,6,3.3,12.02,6.26,17.52,5.22,9.69,13.04,20.3,24.86,20.21.35-6.95,5.82-11.09,9.2-16.54l10.51,3.41c-.79,10.87-3.95,29.7,0,39.36-2.72,1.71-1.63,6.22-1.67,9-.23,18.69,1.61,38.65-1.61,56.6-5.38-6.09-2.94-16.22-5.33-23.37-2.18-6.52-13.12-11.09-19.41-15.03-5.93-3.72-8.51-4.68-13.71-10.85-3.16-3.75-22.3-30.05-23.13-32.67-.51-1.6-2.13-24.03-1.92-25.28.1-.57,4.51-9.71,4.96-10.41,1.28-1.94,8.53-8.05,10.98-11.97Z" fill="#326b73"/>
  <path d="M110.34,477.68c-3.05,10.8,4.41,25.9,3.26,35.12-.59,4.74-7.03,11.77-8.99,17.38-8.96,25.65-10.32,75.92-10.75,104.05-.23,15.18-.33,30.41,3.36,45.18-7.63-.08-15.33.06-22.97,0l3.22-130.45c-.64-4.59,3.12-11.99,3.34-15.52l6.57.81c3.4-11.09,1.36-41.36,5.79-49.97,2.53-4.92,12.21-6.13,17.17-6.6Z" fill="#2f3f4a"/>
  <path d="M164.46,480.96l-3.28,7.17,6.56,13.44c2.62,1.67,7.92-1.53,12.15-.91s13.55,5.9,19,7.38c6.53,1.77,22.75,3.07,26.35,6.45,7.35,6.89-3,19.74-4.63,28.37-6.67,35.24.18,74.03,4.71,109.32,1.16,9.04,6.48,17.82,6.38,27.24-3.28-.01-6.56.02-9.84,0,.25-6.34-3.37-11.42-4.49-17.65-2.08-11.52-3.56-24.61-4.97-36.03-3.86-31.49-6.06-62.45-.38-93.92.63-.56,5.25-6.3,4.92-6.54-4.33.38-8.84.91-13.12,1.62-.28-2.27-7.5-4.92-9.02-4.92h-26.24c-1,0-16.57-3.08-19.31-3.65-15.48-3.21-24.63-26.97-27.43-40.63,17-.58,26.77.36,42.64,3.28Z" fill="#2f4554"/>
  <path d="M103.78,253c.06,1.08-.1,2.2,0,3.28,1.73,19.49,33.4,55.96,42.32,75.06-.08,15.46-2.62,27.68-9.52,41.38-.35.26-1.93.13-3.2.99s-1.26,3.52-2.88,3.96c-14.62,3.98-12.75-9.76-16.56-19.2-6.59-16.28-14.32-32.25-20.32-48.56-5.11-13.91-7.7-24.23-6.44-39.47l-9.63-4.31c10.53-7.23,19.53-8.79,26.24-13.12Z" fill="#2e6870"/>
  <path d="M248.09,253v1.64c-12.34,16.06-21.59,34.87-32.12,52.34-11.32,18.78-18.89,21.57-15.34,46.77,1.1,7.84,5.01,7.73,7.82,11.79,11.17,16.14,23.36,31.41,34.74,47.34,1.71,2.4,4.06,3.51,3.25,7.4-18.23-17.05-30.63-44.82-47.56-60.68-.53-.5,1.55-4.7-3.27-3.27-.27.96.31,2.82,0,3.27-1.27,1.84-3.46,4.69-4.92,6.56-3.39-1.52-7.46,3.14-8.2,3.28-2.29.43-12.66.49-14.76,0-3.08-.72-14.98-11.57-16.4-14.76-2.45-5.48-2.26-19.14,0-24.6.24-.57,6.28-8.75,7.28-9.96,1.47-1.77,3.58-2.69,5.71-3.32l-.05-2.02c-10.28-17.28-24.48-36.3-32.47-54.6-2.51-5.74-.06-6.79-.15-7.17h1.64l32.23,59.17c13.98,3.82,19.93,3.11,25.91-10.13.86-1.91.56-4.01.91-4.77.5-.24,2.02.52,2.97-.26,2.02-1.65,18.48-34.61,19.98-39.1.16-.47-.14-1.11,0-1.64,3.86-.57,2.57-5.41,3.28-6.56.2-.33,5.06-.44,4.92-4.92,13.8,3.07,12.78,3.25,24.6,8.2ZM172.2,323.84c-19.3,4.27-18.12,39.28,6.07,35.7,21.09-3.12,16.89-40.78-6.07-35.7Z" fill="#e47628"/>
  <path d="M139.86,16.84c0,3-.46,7.15,0,9.84-30.58,28.84-10.97,71.95,21.48,89.22,25.4,13.52,36.63,10.06,63.22,7.74,3.17-.28,6.36-1.86,5.5,3.08-3.77.68-16.64,3.28-18.86,3.28h-63.96c-.52,0-2.8-1.51-4.91-1.7-2.98-.28-6.23.42-9.03.06-4.37-.56-11.66-2.28-16.4-3.28-2.93-11.54-10.74-19.81-12.99-32.11-2.64-14.42-1.52-30.16,3.1-44.07l-4.03-2.53c-4.03,3.97-4.07,9.26-7.39,13.95-1.87,2.65-3.95,4.17-3.29-.83,2.92-6.03,4.28-9.07,8.2-14.76l3.28-3.28c.27-.33-.27-1.32,0-1.64,4.26-2.84,13.46-8.68,14.76-13.12.38-.25,1.25.25,1.64,0l3.28-3.28c.41-.24,1.22.23,1.64,0,4.74-2.6,9.12-6.65,14.76-6.56Z" fill="#f38c2c"/>
  <path d="M116.9,125.08c-12.73-2.68-23.72-8.49-36.07-9.83-.44,3.52-.18,4.34,2.64,6.36,4.89,3.49,30.84,9.97,37.95,11.25,4.18.75,8.16-.07,11.88.42,20.3,2.69,36.64,4.01,57.4,3.28l4.91,9.83c-27.52,2.01-54.46-2.06-81.67-4.44-3.15-.27-6.02-2.39-5.24,2.81-6.08-1.25-9.22-2.57-14.76-4.92-3.23-1.37-6.82-3.2-9.84-4.92-6.42-3.67-12.65-5.92-14.38-14.32-3.32-16.16,10.18-13.63,12.4-21.28,1.31-4.51.02-11.23,1.07-16.97,1.75-9.57,5.2-14.82,9.1-22.88-.66,5,1.42,3.48,3.29.83,3.32-4.68,3.36-9.98,7.39-13.95l4.03,2.53c-4.62,13.91-5.74,29.65-3.1,44.07,2.25,12.3,10.06,20.57,12.99,32.11Z" fill="#e27f28"/>
  <path d="M121.82,477.68c2.79,13.67,11.95,37.42,27.43,40.63,2.74.57,18.32,3.65,19.31,3.65h26.24c1.52,0,8.74,2.65,9.02,4.92-15.87,2.65-28.67,4.16-45.08,3.26-8.5-.47-18.44-4.38-27.08-3.26-2.7.35-15.01,5.57-16.5,7.28-.77,6.59-8.24,15.18-9.4,20.12-2.41,10.21-1.58,21.87-2.43,32-2.61,30.82-8.07,63.02.46,93.12-2.19-.01-4.37.02-6.56,0-3.68-14.77-3.59-30-3.36-45.18.43-28.13,1.79-78.4,10.75-104.05,1.96-5.61,8.4-12.64,8.99-17.38,1.15-9.22-6.31-24.32-3.26-35.12,3.69-.35,7.72.13,11.48,0Z" fill="#2c414f"/>
  <path d="M131.66,526.88c6.11,7.44,15.21,7.18,21.06,15.84,8.71,12.91.71,24.8,10.1,35h1.64c-.28,4.33.31,8.79,0,13.12l-3.29,9.85-6.72-.97c-2.47-3.44-1.7-28.22-3.45-35.6-.39-1.63-8.55-16.29-9.47-16.76-9.25-4.68-17.04,4.64-21.05,11.8-7.54,13.48-11.74,62.91-11.85,79.99-.08,13.73,2.92,26.86,4.99,40.25-3.28,0-6.56.02-9.84,0-8.52-30.11-3.07-62.31-.46-93.12.86-10.13.02-21.79,2.43-32,1.17-4.94,8.63-13.52,9.4-20.12,1.49-1.71,13.8-6.93,16.5-7.28Z" fill="#2f4554"/>
  <path d="M93.94,139.84c-3.57,63.91,52.94,100.02,111.52,80.36,2.17.12,4.4-.16,6.56,0,.29.02,1.23,1.84,3.64,1.44,2.76-.45,4.62-3.73,7.83-3.07.08,5.89-6.96,7.36-11.49,8.22l1.65,3.25-1.64,1.64c-22.74,1.51-46.97-3.59-68.88,6.56h-1.64c-.82-10.6-7.18-8.52-15.25-13.45-15.77-9.64-22.94-31.48-25.71-33.33-1.88-1.25-8.23-1.34-12.67-3.73-13.5-7.25-17.99-31.28-10.11-43.59,2.44-3.81,9.73-4.93,6.35-9.23,3.02,1.72,6.61,3.55,9.84,4.92Z" fill="#de8c57"/>
  <path d="M215.3,679.41c-7.08-.09-14.22.09-21.3-.01l-8.2-82.82c.02-5.18-.22-10.42-.02-15.57,3.34.15,5.81.29,6.39-3.99,1-7.51-.68-17.23.9-25.62,1.5-7.94,2.89-6.88,7.47-11.39-3.83,46.68,5.03,93.83,14.76,139.4Z" fill="#293b46"/>
  <path d="M271.05,133.28c-1.8,1.09-10.31,6.1-11.48,6.56-16.09,6.36-44.82,9.18-62.32,9.84-29.37,1.1-59.86,1-88.56-4.92-.78-5.2,2.09-3.08,5.24-2.81,27.21,2.38,54.15,6.45,81.67,4.44l-4.91-9.83c23.31-.81,56.3-3.23,76.92-14.09,2.74-1.44,5.65-5.86,8.35-7.23.84-.42,3.54.37,4.91-.02l-1.63-8.18c9.26,9.07.83,20.75-8.2,26.24Z" fill="#f38c2c"/>
  <path d="M103.78,421.92c10.31.07,8.21,10.67,16.4,9.84-1.54,2.04-4.07,8.64-4.92,11.48-1.53,0-18.66-.93-13.11,3.27l14.04,1.54c-.68,8.29,5.17,12.48,5.63,19.78l-18.03,1.65c-7.63-.68-15.27-1.84-22.96-1.64-5.43-17.14-.16-14.82,0-29.52,7.33,4.12,10.6-4.11,14.55-9.3,1.3-1.71,1.56-5.16,1.85-5.46.23-.24,5.8-1.65,6.56-1.64Z" fill="#d36821"/>
  <path d="M271.05,133.28l-4.14,4.92c19.37,12.7,14.26,42.94-5.66,51.7-2.85,1.25-6.34-.03-9.08,2.4-2.57,2.28-7.09,14.13-9.92,17.96-6.05,8.21-18.18,18.56-28.6,19.78l-1.65-3.25c4.53-.86,11.56-2.33,11.49-8.22-3.21-.66-5.06,2.62-7.83,3.07-2.42.39-3.35-1.42-3.64-1.44,7.4-4.37,12.91-7.64,19.68-13.12,3.16-2.56,4.03-3.81,6.56-6.56,8.67-9.42,13.93-15.29,14.76-29.52,4.63-2.54,5.4-14.54,4.92-19.68,3.11-2.32,1.25-7.89,1.64-11.48,1.17-.46,9.68-5.47,11.48-6.56Z" fill="#f19e65"/>
  <path d="M203.82,526.88c4.28-.71,8.79-1.25,13.12-1.62.33.25-4.29,5.99-4.92,6.54-2.29,2.02-8.1,4.87-11.48,8.2-4.58,4.51-5.97,3.45-7.47,11.39-1.58,8.39.1,18.11-.9,25.62-.57,4.28-3.04,4.14-6.39,3.99.04-1.09-.07-2.2,0-3.28.06-.85,3.3-6.5,1.64-9.85h-3.28c-.06-3.2-.23-6.65,0-9.83.03-.44,2.67-2.6,1.63-4.91h-3.27c-.21-4.84.4-9.76-.19-14.58l-16.12-.09-.1,14.67-1.63,2.44,1.63.84c-.1,3.27.15,6.57,0,9.84h-3.28s0,11.48,0,11.48c-9.39-10.19-1.4-22.09-10.1-35-5.84-8.66-14.95-8.4-21.06-15.84,8.64-1.12,18.58,2.79,27.08,3.26,16.41.91,29.2-.61,45.08-3.26Z" fill="#22333e"/>
  <path d="M69.34,367.8c2.48-14.67,6.84-29.05,4.93-44.27,1.97-2.6,2.99-.02,3.28,2.42.88,7.51,1.06,16.19,1.64,23.81,1.78,23.53,3.58,29.36,10.3,51.2,2.38,7.73,1.21,17.06,7.74,22.6-.28.3-.55,3.75-1.85,5.46-3.96,5.19-7.22,13.42-14.55,9.3.06-5.37-1.14-16.77-1.64-22.96l1.63-21.31c-3.32-.71-5.4,2.81-8.19,3.27-2.16.36-5.82.12-8.2,0,1.4-3.16,1.14-6.57,1.64-9.84.64-4.21.93-9.25,1.64-13.12.1-.53-.1-1.11,0-1.64.36-1.98,1.44-3.76,1.64-4.92Z" fill="#295157"/>
  <path d="M212.02,531.8c-5.68,31.47-3.48,62.43.38,93.92,1.4,11.42,2.88,24.52,4.97,36.03,1.13,6.22,4.75,11.31,4.49,17.65-2.19-.01-4.37.03-6.56,0-9.73-45.57-18.58-92.72-14.76-139.4,3.38-3.33,9.19-6.18,11.48-8.2Z" fill="#2c414f"/>
  <path d="M51.3,298.92l11.5-4.08c-4.01,14.3-5.43,29.44-8.67,43.81-.55,2.43-3.44,4.38-4.14,7.34-3.76,16,4.18,22.08,19.34,21.81-.2,1.16-1.28,2.94-1.64,4.92-12.57-3.09-37.01-12.38-36.08-27.88.28-4.71,13.38-38.54,16.37-43.1l3.31-2.82Z" fill="#2b5c63"/>
  <path d="M103.78,469.48c10.92.98,19.83,1.62,31.16,1.64-.91,4.97,2.51,3.16,5.67,3.28,7.93.31,15.94-.22,23.85,0-.18,2.66.94,2.3,1.64,3.28.49.68,2.92,3.19,3.28,3.28-1.48-.29-3.42.28-4.92,0-15.87-2.92-25.63-3.86-42.64-3.28-3.76.13-7.79-.35-11.48,0-4.96.47-14.64,1.68-17.17,6.6-4.43,8.61-2.39,38.88-5.79,49.97l-6.57-.81c.41-6.49-.45-13.19,0-19.68.02-.29,1.57-2,1.73-5.63.41-9.34.89-21.66-1.73-30.45-.03-2.59.57-8.06,0-9.84,7.69-.2,15.33.96,22.96,1.64Z" fill="#22333e"/>
  <path d="M271.05,333.36c.11-1.5-1.14-20.46,3.27-14.77,2.73,16.51,9.3,37.82,26.24,44.32l-8.19,9.81c-2.18.56-4.35,1.18-6.54,1.69l.93,8.2-5.87,1.58c-2.74-3.2-8.22-7.52-9.84-11.48-3.95-9.66-.79-28.49,0-39.36Z" fill="#295157"/>
  <path d="M220.22,308.76c-2.46,3.92-9.7,10.03-10.98,11.97-.46.69-4.87,9.84-4.96,10.41-.22,1.25,1.41,23.68,1.92,25.28.83,2.62,19.97,28.92,23.13,32.67,5.21,6.17,7.79,7.13,13.71,10.85,6.29,3.94,17.23,8.51,19.41,15.03,2.39,7.14-.05,17.27,5.33,23.37-.16.9-1.7,2.45-1.64,3.28-2.34-1.8-4.54-4.36-6.56-6.56-.52-.57-1.11-1.08-1.64-1.64s-1.12-1.08-1.64-1.64c-3.18-3.43-4.88-6.84-9.84-11.48.8-3.89-1.54-5-3.25-7.4-11.38-15.93-23.57-31.2-34.74-47.34-2.81-4.06-6.71-3.95-7.82-11.79-3.55-25.2,4.02-27.99,15.34-46.77,10.53-17.47,19.78-36.28,32.12-52.34,1.95,5.98-6.74,13.96-9.59,19.11-6.18,11.17-11.47,24.14-18.29,35.01Z" fill="#2e6870"/>
  <path d="M212.02,241.52c4.8.77,7.93,2.49,11.48,3.28.14,4.48-4.72,4.59-4.92,4.92h-1.64c-10.37-3.48-62.45-5.85-68.54-1.3-1.1.82-2.8,8.97-8.54,9.5-1.65-2.3-3.4-5.04-6.56-4.92h-1.64c-.51-2.07-2.61-4.37-3.28-6.56-.26-.85.18-2.25,0-3.28,4.27-1.02,14.11-.08,13.12-4.92h1.64c3.78,4.49,9.87,0,12.3,0h39.36c3.03,0,12.94,2.59,17.22,3.28Z" fill="#326b73"/>
  <path d="M256.29,431.76c.52.56,1.11,1.08,1.64,1.64l.02,3.28,1.62-1.64c2.02,2.2,4.22,4.76,6.56,6.56.55,7.06,3.06,14.37,3.28,24.6.01.55,0,1.09,0,1.64-26.73,3.4-53.8,5.06-80.84,4.89-3.87,7.71-10.75,10.33-19.2,8.23-.36-.09-2.79-2.6-3.28-3.28l17.85-.2c-.19-3.14,2.8-6.66,2.97-9.04.35-4.73-5.12-19.37,3.78-20.28v1.64c0,6.55,0,13.14,0,19.69l56.58-1.65c6.65-1.16.64-10.06,5.76-15.54l-6.57-5.77c5.08-.54,15.28-.75,18.04-4.9-9.28.77-18.58,1.11-27.88,1.62-1.5-2.3-3.34-4.32-4.92-6.56,7.13-4.04,16.19-7.22,24.6-4.92Z" fill="#d36821"/>
  <path d="M36.54,558.04l-13.14-24.6-6.53,6.55c-3.02-7.27,5.63-32.5,12.6-34.28,4.33-1.11,19.44,11.19,7.06,9.71-.39.35,2.57,3.82,3.29,4.9l-1.26.98c.54,2.28.68,5.07,1.26,7.22,2.11,6.79-6.22,5.89-6.68,7.54-1.7,8.47,5.73,13.72,5.04,21.98-.48.19-1.18-.19-1.64,0Z" fill="#de8c57"/>
  <path d="M38.18,366.16c.62,14.21,13.28,35.67,27.88,21.32-.5,3.27-.24,6.68-1.64,9.84-12.89-.62-25.45-6.35-36.08-13.12-1.49-.95-2.72-2.94-4.92-3.28-1.26-14.25-6.93-10.71,1.64-27.88,5.59.74,8.82,9.78,13.12,13.12Z" fill="#2b5c63"/>
  <path d="M313.69,376c2.78,7.57-8.94,11.85-13.62,14.74-1.59.98-.99,3.21-1.14,3.3-1.31.74-9.33.03-11.45-.85-4.27-1.78-5.11-7.26-6.59-8.99l5.87-1.58-.93-8.2c2.19-.52,4.36-1.14,6.54-1.69.95-.24,9.77-1.43,10.3-1.35,3.3.48,6.62,4.42,11.02,4.63Z" fill="#2c6169"/>
  <path d="M64.42,397.32c2.38.12,6.04.36,8.2,0v1.64c-.16,1.79-.76,3.37-1.64,4.92-1.33,2.34-4.7,4.48-5.11,8.02l-40.82-17.88,3.28-9.82c10.63,6.77,23.19,12.5,36.08,13.12Z" fill="#de8c57"/>
  <path d="M212.02,231.68v9.84c-4.28-.69-14.19-3.28-17.22-3.28h-39.36c-2.43,0-8.52,4.49-12.3,0,21.91-10.15,46.14-5.05,68.88-6.56Z" fill="#f19e65"/>
  <path d="M269.41,467.84c.03,2.19-.04,4.37,0,6.56-5.92,4.23-3.79-1.66-7.31-1.83-6.99-.33-20.2,2.98-27.96,3.45-11.95.74-31.71-.44-42.6,1.68-9.7,1.89-4.73,6.63-22.16,3.26,8.45,2.1,15.33-.51,19.2-8.23,27.04.17,54.11-1.49,80.84-4.89Z" fill="#293b46"/>
  <path d="M146.42,13.56c5.84,4.99,2.22,49.4,3.28,59.04-.26-.29-2.91.97-3.37-.96-.9-3.8.45-11.05-.12-16.05-1.19-10.33-4.81-19.89-6.35-28.91-.46-2.69,0-6.84,0-9.84v-3.28c.45-.15,1.08.11,1.64,0,1.7-.32,2.99-1.48,4.92,0Z" fill="#e47628"/>
  <path d="M31.62,344.84c-.93,15.5,23.5,24.79,36.08,27.88-.1.53.1,1.11,0,1.64-9.09.7-22.35-2.64-29.52-8.2-4.3-3.34-7.53-12.38-13.12-13.12,1.37-2.73-.35-8.14,6.56-8.2Z" fill="#357078"/>
  <path d="M141.5,13.56c-.16-3.81,2.24-4.31,4.86-5.8,17.47-9.91,35.74-9.61,54.18-3.14,2.58.91,5.88-.52,4.92,4.02-15.64-5.7-38.04-6.24-53.64-.28-2.6.99-5.77,1.55-5.4,5.2-1.93-1.48-3.22-.32-4.92,0Z" fill="#ed9961"/>
  <path d="M39.82,528.52c1.56,5.78,9.12,24.82,2.99,29.29-1.27.92-3.7-.13-4.63.23.69-8.26-6.74-13.51-5.04-21.98.46-1.65,8.78-.76,6.68-7.54Z" fill="#ed9961"/>
  <path d="M128.38,243.16c.18,1.03-.26,2.43,0,3.28l-11.47,1.66,9.81,4.06c-3.17,3.33-8.53,2.74-12.89,3.6-2.92.57-6.1-.67-5.13,3.8-.61-.93-3.83-2.17-4.92-3.28-.1-1.08.06-2.2,0-3.28,10.94-7.07,10.35-6.45,24.6-9.84Z" fill="#d36821"/>
  <path d="M80.82,513.76c-4.24-11.54.15-24.01,0-36.08,2.62,8.79,2.14,21.11,1.73,30.45-.16,3.63-1.71,5.34-1.73,5.63Z" fill="#2f3f4a"/>
  <path d="M321.89,323.52c0,8.36,1.8,20.29-7.36,24.62l5.72-24.62h1.64Z" fill="#295157"/>
  <path d="M72.62,397.32c2.79-.46,4.87-3.98,8.19-3.27l-1.63,21.31c-.45-5.61-2.96-11.75-1.65-18.03l-4.91,1.63v-1.64Z" fill="#52616a"/>
  <path d="M266.13,441.6c.53.41,3.12-.17,4.14,1.53,1.11,1.83,2.33,14.15,2.49,17.32s1.34,6.73-3.36,5.74c-.22-10.23-2.73-17.54-3.28-24.6Z" fill="#df7125"/>
  <path d="M271.05,513.76h-1.64v-27.88c0-1.64,0-3.28,0-4.92,0-2.19.04-4.38,0-6.56l1.63.83c.09,12.84-.07,25.71.01,38.53Z" fill="#df7125"/>
  <path d="M184.14,567.88h3.28c1.67,3.34-1.58,8.99-1.64,9.84-2.59-2.84-1.58-6.46-1.64-9.84Z" fill="#293b46"/>
  <path d="M166.1,566.24c-.21,4.49-1.44,8.39-1.64,11.48h-1.64v-11.48s3.28,0,3.28,0Z" fill="#344a5b"/>
  <path d="M207.1,8.64c7.51,3.29,24.48,15.5,31.16,21.32-9.44-3.16-17.43-12.95-27.88-13.12-.09-1.08.18-2.3,0-3.28-.23-1.27-2.65-3.43-3.28-4.92Z" fill="#ed9961"/>
  <path d="M139.86,13.56v3.28c-5.64-.09-10.02,3.96-14.76,6.56-.53-3.84,10.77-8.52,14.76-9.84Z" fill="#ed9961"/>
  <path d="M182.5,553.12h3.27c1.04,2.32-1.6,4.48-1.63,4.92-2.14-.79-1.56-3.12-1.64-4.92Z" fill="#293b46"/>
  <path d="M118.54,26.68c-1.3,4.44-10.5,10.28-14.76,13.12,4.85-5.67,8.6-8.97,14.76-13.12Z" fill="#ed9961"/>
  <path d="M166.1,556.4l-1.63-.84,1.63-2.44c.71.55,1.12,1.03,1.11,1.97-.01.57-1.09.98-1.11,1.31Z" fill="#344a5b"/>
  <path d="M100.5,44.72c1.28-1.86,2.59-2.42,3.28-3.28l-3.28,3.28Z" fill="#ed9961"/>
  <path d="M120.18,26.68c.46-.3,1.13-2.04,3.28-3.28l-3.28,3.28Z" fill="#ed9961"/>
  <path d="M313.69,349.77c1.68,1.7-3.26,6.57-4.9,4.9s3.26-6.57,4.9-4.9Z" fill="#295157"/>
  <rect x="20.15" y="543.29" width="3.26" height="3.26" fill="#de8c57"/>
  <rect x="23.43" y="548.21" width="3.26" height="3.26" fill="#de8c57"/>
  <rect x="26.71" y="553.13" width="3.26" height="3.26" fill="#de8c57"/>
  <path d="M207.1,13.56c-6.32,14.01-2.09,30.85-3.26,45.92,3.08-.65,2.97-3.24,3.3-5.7,1.02-7.56,2.63-16.61,3.24-23.82,10.53,3.51,32.45,26.83,27.07,37.73s-40.69,13.65-30.35-6.56l-4.91-.02-.02,16.4c-7.79-.08-13.74-6.41-20.2-10.12-8.21-4.73-17.13-3.97-19.05-17.04-3.59-24.39,19.32-23.7,33.16-30.59,4.82-2.4,3.7-5.56,11.02-6.2Z" fill="#fdae3a"/>
  <path d="M210.38,13.56c.18.98-.09,2.2,0,3.28.32,3.83.33,9.29,0,13.12-.61,7.21-2.22,16.26-3.24,23.82-.33,2.46-.22,5.05-3.3,5.7,1.17-15.07-3.06-31.91,3.26-45.92,1.08-.09,2.2.06,3.28,0Z" fill="#e27f28"/>
  <path d="M269.41,480.96c0,1.64,0,3.28,0,4.92h-3.28s-.01-4.09-.01-4.09l3.29-.83Z" fill="#3a4f5e"/>
  <path d="M164.46,374.36c-2.12,3.24-4.07,7.66-4.92,11.48-9.48,9.97-19.51,22.51-26.24,34.44-.92-.09-2.18-.34-2.88.37-1.99,2.03-8.96,9.41-10.24,11.11-8.19.83-6.09-9.77-16.4-9.84-.1-3.08,3.06-8.86,4.92-11.48,9.13-12.85,20.64-23.33,27.88-37.72,4.08-3.09,8.55-8.87,11.48-13.12,3.79,7.58,8.32,12.09,16.4,14.76Z" fill="#df7125"/>
  <path d="M108.7,410.44c-1.86,2.62-5.02,8.4-4.92,11.48-.76,0-6.33,1.4-6.56,1.64-6.53-5.54-5.36-14.87-7.74-22.6-6.72-21.83-8.52-27.67-10.3-51.2,4.82-1.89,10.64,10.35,11.86,13.56,4.48,11.84,6.83,32.02,11.51,42.61,1.31,2.97,2.83,4.35,6.15,4.51Z" fill="#2b5c63"/>
  <path d="M275.97,115.24c-2.7,1.37-5.61,5.79-8.35,7.23-20.63,10.86-53.61,13.27-76.92,14.09-20.76.73-37.1-.59-57.4-3.28v-4.92c2.8.36,6.05-.34,9.03-.06,2.1.19,4.39,1.7,4.91,1.7h63.96c2.22,0,15.09-2.6,18.86-3.28,6.88-1.24,13.91-2.64,20.55-4.86s13.83-7.37,18.91-9.15c3.2-1.12,4.23,1.13,6.46,2.53Z" fill="#fca537"/>
  <path d="M108.7,259.56c.7,1.06,1.11,4.45,2.37,6.6,12.67,21.7,24.42,44.34,40.27,63.92-2.26,5.46-2.45,19.12,0,24.6-2.01,1.08-2.26,3.44-3.28,4.92-2.93,4.25-7.4,10.03-11.48,13.12,6.9-13.7,9.44-25.92,9.52-41.38-8.92-19.1-40.59-55.58-42.32-75.06,1.09,1.11,4.31,2.35,4.92,3.28Z" fill="#295157"/>
  <path d="M216.94,249.72c-1.67,1.97-1.12,4.54-1.64,6.56-.14.53.16,1.17,0,1.64-10.37,11.2-16.58,25.5-22.96,39.36-2.86,1.4-9.61,4.35-11.51,5.74-2.9,2.11-3.47,8.97-9.44,5.32-.59-.36-.9-2.52-2.2-3.47-1.43-1.04-3.59-.68-4.84-2.13-9.02-10.51-16.25-33.34-24.48-44.81,5.74-.53,7.44-8.68,8.54-9.5,6.1-4.55,58.17-2.18,68.54,1.3Z" fill="#357078"/>
  <path d="M198.9,359.6c16.92,15.86,29.33,43.63,47.56,60.68,4.96,4.64,6.66,8.05,9.84,11.48-8.41-2.3-17.47.88-24.6,4.92-14.93-21.14-35.04-41.53-47.56-63.96,2.63-1.92,4.55-3.98,6.56-6.56,1.46-1.87,3.65-4.72,4.92-6.56h3.28Z" fill="#df7125"/>
  <path d="M182.5,369.44c-.11,1.51,1.1,2.31,1.64,3.28,12.52,22.43,32.63,42.82,47.56,63.96,1.58,2.24,3.42,4.26,4.92,6.56-13.37.74-33.39,3.6-45.92,1.64-5.28-.83-3.87-3.68-5.27-4.54s-14.64-.84-16.7-.16c-2.7.89-2.41,4.55-2.63,4.7-2.88,1.94-43.02-1.64-50.84-1.64.85-2.84,3.38-9.44,4.92-11.48,1.28-1.7,8.26-9.08,10.24-11.11.7-.71,1.95-.46,2.88-.37-1.45,2.57-1.1,8.11-6.55,10.68v2.44s92.64,0,92.64,0l1.67-4.92-39.27-50.95c-5.16-2.65-12.66-3.02-16.51,1.79-3.03,3.79-3.35,4-5.75,6.53.85-3.82,2.8-8.25,4.92-11.48.65-1,3.93-1.73,3.28-4.92,2.1.49,12.47.43,14.76,0Z" fill="#295157"/>
  <path d="M128.38,246.44c.67,2.19,2.77,4.49,3.28,6.56.09.38-2.35,1.43.15,7.17,7.99,18.31,22.19,37.32,32.47,54.6l.05,2.02c-2.13.64-4.25,1.55-5.71,3.32-1.01,1.22-7.05,9.39-7.28,9.96-15.85-19.58-27.6-42.22-40.27-63.92-1.26-2.15-1.67-5.54-2.37-6.6-.96-4.47,2.21-3.23,5.13-3.8,4.36-.86,9.72-.28,12.89-3.6l-9.81-4.06,11.47-1.66Z" fill="#df7125"/>
  <path d="M172.2,323.84c22.96-5.08,27.17,32.58,6.07,35.7-24.19,3.58-25.38-31.43-6.07-35.7Z" fill="#d36821"/>
  <path d="M139.86,257.92c8.23,11.46,15.46,34.3,24.48,44.81,1.25,1.46,3.41,1.1,4.84,2.13,1.31.95,1.62,3.11,2.2,3.47,5.97,3.65,6.54-3.2,9.44-5.32,1.9-1.39,8.64-4.33,11.51-5.74,6.37-13.86,12.59-28.16,22.96-39.36-1.5,4.49-17.97,37.45-19.98,39.1-.95.78-2.48.02-2.97.26-.35.76-.04,2.86-.91,4.77-5.98,13.24-11.92,13.94-25.91,10.13l-32.23-59.17c3.16-.12,4.91,2.62,6.56,4.92Z" fill="#2e6870"/>
  <path d="M167.74,369.44c.65,3.19-2.63,3.92-3.28,4.92-8.08-2.67-12.61-7.18-16.4-14.76,1.02-1.48,1.27-3.84,3.28-4.92,1.42,3.19,13.32,14.04,16.4,14.76Z" fill="#d36821"/>
  <path d="M190.7,366.16c-2.01,2.58-3.93,4.64-6.56,6.56-.54-.97-1.75-1.77-1.64-3.28.74-.14,4.81-4.8,8.2-3.28Z" fill="#d36821"/>
  <path d="M215.3,256.28c.52-2.02-.03-4.59,1.64-6.56h1.64c-.71,1.15.58,5.99-3.28,6.56Z" fill="#2e6870"/>
  <path d="M195.62,359.6c.31-.45-.27-2.32,0-3.27,4.83-1.42,2.74,2.77,3.27,3.27h-3.28Z" fill="#d36821"/>
  <path d="M116.9,125.08c4.74,1,12.03,2.72,16.4,3.28v4.92c-3.72-.49-7.7.33-11.88-.42-7.1-1.28-33.06-7.76-37.95-11.25-2.82-2.02-3.08-2.84-2.64-6.36,12.35,1.34,23.35,7.16,36.07,9.83Z" fill="#fc9930"/>
  <path d="M108.7,144.76c28.7,5.92,59.18,6.02,88.56,4.92.2,5.73,1.01,4.53-4.02,4.92-6.88.54-18.78-1.41-24.35-.04-1.78.44-2.61,4.95-3.61,4.95h-36.9c.46,7.63.09,19.54,2.02,26.68.54,2,4.79,13.28,5.78,15.54,1.47,3.35,5.55,5.07,6.62,8.19.71,2.07-.22,5.85.52,6.8.99,1.27,28.02,4.95,31.8,5.09,11.27.41,19.75-2.21,30.33-1.62-58.58,19.66-115.09-16.45-111.52-80.36,5.54,2.35,8.68,3.67,14.76,4.92Z" fill="#3b261b"/>
  <path d="M259.57,139.84c-.39,3.59,1.47,9.16-1.64,11.48-.07-.76-1.59-7.61-4.08-6.55-1.21.52-2.63,3.27-5.39,4.46-24.78,10.69-57.68,10.7-84.18,12.89-7.35,16.62,17.6,22.59,11.87,37.47l1.38,1.74c10.77,3.84,19.32,8.48,31.04,9.2l.18,6.4c10.35.52,12.59-10.15,22.95-9.85-6.77,5.48-12.28,8.75-19.68,13.12-2.16-.16-4.39.12-6.56,0-10.58-.59-19.06,2.03-30.33,1.62-3.78-.14-30.81-3.82-31.8-5.09-.75-.96.19-4.74-.52-6.8-1.07-3.12-5.15-4.84-6.62-8.19-.99-2.26-5.24-13.54-5.78-15.54-1.93-7.13-1.57-19.05-2.02-26.68h36.9c1,0,1.84-4.51,3.61-4.95,5.57-1.38,17.47.58,24.35.04,5.03-.4,4.22.81,4.02-4.92,17.5-.66,46.23-3.48,62.32-9.84Z" fill="#462f23"/>
  <path d="M115.26,443.24c7.82,0,47.96,3.58,50.84,1.64v3.28c-4.99-.91-3.13,2.5-3.27,5.66-.26,5.75-.8,11.98,1.63,17.28-9.82.01-19.7.04-29.52.02-11.33-.02-20.24-.66-31.16-1.64l18.03-1.65c-.46-7.3-6.31-11.49-5.63-19.78l-14.04-1.54c-5.55-4.2,11.58-3.27,13.11-3.27Z" fill="#df7125"/>
  <path d="M231.7,207.08c-10.36-.3-12.6,10.37-22.95,9.85l-.18-6.4c-11.71-.72-20.27-5.36-31.04-9.2l-1.38-1.74c5.74-14.88-19.21-20.85-11.87-37.47,26.5-2.18,59.4-2.2,84.18-12.89,2.76-1.19,4.18-3.94,5.39-4.46,2.49-1.06,4.01,5.78,4.08,6.55.48,5.14-.29,17.14-4.92,19.68l-14.76,29.52c-2.53,2.75-3.4,4-6.56,6.56Z" fill="#4f3629"/>
  <path d="M238.26,200.52l14.76-29.52c-.83,14.23-6.09,20.1-14.76,29.52Z" fill="#462f23"/>
  <path d="M67.7,374.36c-.71,3.87-1,8.91-1.64,13.12-14.59,14.35-27.26-7.11-27.88-21.32,7.17,5.56,20.43,8.9,29.52,8.2Z" fill="#2c6169"/>
  <g id="hand-and-tool">
    <path d="M385.85,230.04c15.07,3.71,24.82,26.07,24.74,40.24-.02,2.9-2.93,2.86-3.42,4.04-2.13-.11-2.52,3.1-.82,3.27l.82-1.63c.34,12.04-2.17,10.26-6.56,19.68.37-.38,1.99-6.21,1.63-6.55-7.35-2.85-18.49,19.03-16.38,21.3,7.5.83,6.67-10.8,8.58-12.74,1.04-1.07,4.95-.74,6.18-2.01-10.63,22.79-11.4,47.83-21.05,68.21-1.4,2.96-2.23,2.98-5.19,3.95,1.39-6.38,2.95-13.11,3.29-19.68l4.9,1.65c2.7-5.33-2.71-12.62,3.13-13.83-5.11-4.56,4.75-17.76-3.11-17.35l-7.36,29.56c-8.75,22.28-24.59,47.27-51.7,32.76,2.49-7.03,12.12-22.57,13.12-27.88,4.97,1.29,2.78,9.4,8.19,8.19-5.15-11.44,1.68-19.4,4.48-29.13,1.28-4.44,1.55-9.28,2.94-13.46,2.2-6.6,9.57-18.76,10.28-24.19,1.03-7.84-7.65-23.32-7.98-30.8-.44-9.79,5.22-17.21,6.68-25.41,7.42,6.51,8.22,33.01,19.68,11.48,3.34-6.27,4.46-12.26,4.92-19.68ZM404.71,282.52v1.64c1.06-.55,1.06-1.09,0-1.64ZM389.12,323.51v-3.26h-1.61v3.26h1.61ZM386.67,328.44v1.64c1.06-.55,1.06-1.09,0-1.64Z" fill="#f19e65"/>
    <path d="M364.53,167.72c.15.2,4.02-.91,3.41,2.35l-.95,41.94,10.65-.02c1.23-4.91-2.95-1.69-3.41-5.61-.65-5.44-.78-26.32.18-31.25.91-4.73,5.41-6.74,9.81-7.41-2.94,20.01,2.86,42.51,1.64,62.32-.46,7.42-1.58,13.41-4.92,19.68l-9.83,1.65-3.29-26.25-4.9,1.2c.31,1.5-1.52,3.03-1.65,3.73-6.53-8.66,2.5-17.01,3.36-23.7,1.49-11.75-1.25-26.49-.08-38.62Z" fill="#52616a"/>
    <path d="M336.65,335c-.94-5.01,4.27-5.02,3.27,0h-3.27c-.81,1.05.66,14.56,0,18.05-1,5.31-10.63,20.85-13.12,27.88-.51,1.44-2.57,1.89-1.45,5.36,2.96,9.2,28.56,8.31,35.89,4.47l3.29,4.93c-20.87,25.51-40.39,17.9-62.32-1.64.15-.09-.45-2.32,1.14-3.3,4.68-2.89,16.4-7.18,13.62-14.74,8.9.42,18.7-19.64,19.56-27.21.54-4.8-.59-7.49-.98-11.68-.11-1.15,1.13-1.99,1.11-2.11h3.28Z" fill="#de8c57"/>
    <path d="M361.25,233.32c-.21,1.56.26,3.43,0,4.92-1.45,8.2-7.11,15.62-6.68,25.41.33,7.48,9.02,22.96,7.98,30.8-.72,5.43-8.08,17.59-10.28,24.19-1.39,4.18-1.66,9.02-2.94,13.46-2.8,9.73-9.64,17.7-4.48,29.13-5.42,1.21-3.23-6.9-8.19-8.19.66-3.48-.81-16.99,0-18.04h3.27c1-5.02-4.21-5.01-3.27,0h-3.28c-.1-.58.17-1.28,0-1.64l19.26-38.78c-5.58-9.13-7.17-55.18-.14-59.76,2.23-1.45,6.08-1.48,8.76-1.5Z" fill="#ed9961"/>
    <path d="M312.05,131.64c-.2,5.73-1.01,4.53,4.02,4.92,36.16,2.84,80.77,3.28,117.34,3.28h4.92c-.13,3.27.11,6.58,0,9.85h-45.93c.1-1.64-.02-3.3,0-4.93-9.86,1.72-28-2.32-36.66-.03-1.77.47-.9,3.16-1.07,3.31-.27.25-2.29-.11-3.28,0,0-2.36-1.21-5.18-4.08-4.94l-.84,4.94c-6.92.26-27.27,1.19-32.41-1.21s-4.31-10.28-3.67-15.19h1.64Z" fill="#52616a"/>
    <path d="M354.69,148.04c.17-.16-.7-2.84,1.07-3.31,8.66-2.29,26.8,1.75,36.66.03-.03,1.63.09,3.29,0,4.92-.48,7.73-7.1,10.58-8.2,18.04-4.39.68-8.89,2.69-9.81,7.41-.95,4.94-.82,25.81-.18,31.25.47,3.92,4.64.7,3.41,5.61l-10.65.02.95-41.94c.61-3.26-3.26-2.15-3.41-2.35-3.37-4.58-7.84-14.06-9.84-19.68Z" fill="#334858"/>
    <path d="M323.53,380.92c27.11,14.51,42.95-10.48,51.7-32.76l7.36-29.56c7.85-.41-2,12.79,3.11,17.35-5.84,1.21-.44,8.5-3.13,13.83l-4.9-1.65c-.34,6.56-1.9,13.3-3.29,19.68-2.95,13.48-4.07,16.82-13.12,27.88l-3.29-4.93c-7.32,3.84-32.92,4.73-35.89-4.47-1.12-3.47.95-3.93,1.45-5.36Z" fill="#ed9961"/>
    <path d="M438.33,133.28l-40.11-3.35c-15.59.42-31.25-.34-46.81.07-2.18.06-4.38-.07-6.56,0-9.94-3.74-22.29-.66-32.8-1.64.47-.98-.12-3.12,1.53-4.14l119.09.78,4.94,1.65c1.23,2.1.53,4.43.72,6.63Z" fill="#52616a"/>
    <path d="M438.33,133.28c.18,2.07.08,4.46,0,6.56h-4.92c.2-5.73,1.01-4.53-4.02-4.92-23.58-1.85-48.64-.84-72.31-1.64-3.16-.11-6.58,1.67-5.67-3.28,15.56-.41,31.22.35,46.81-.07l40.11,3.35Z" fill="#3a4f5e"/>
    <path d="M361.25,230.04c.13-.7,1.96-2.23,1.65-3.73l4.9-1.2,3.29,26.25,9.83-1.65c-11.46,21.53-12.26-4.97-19.68-11.48.26-1.49-.21-3.36,0-4.92.14-1.05-.19-2.29,0-3.28Z" fill="#2f3f4a"/>
    <path d="M351.41,148.04c-1.6.18-3.3-.06-4.92,0l.84-4.94c2.88-.25,4.09,2.58,4.08,4.94Z" fill="#334858"/>
    <path d="M386.67,328.44c1.06.55,1.06,1.09,0,1.64v-1.64Z" fill="#fefefe"/>
    <path d="M351.41,130c-.92,4.95,2.51,3.17,5.67,3.28,23.67.79,48.73-.22,72.31,1.64,5.03.4,4.22-.81,4.02,4.92-36.57,0-81.18-.43-117.34-3.28-5.03-.4-4.22.81-4.02-4.92,10.87,1.48,22.62-1.29,32.8-1.64,2.18-.07,4.38.06,6.56,0Z" fill="#293b46"/>
    <path d="M407.17,275.96l-.82,1.63c-1.7-.18-1.31-3.38.82-3.27-.13.32-.02,1.1,0,1.64Z" fill="#ed9961"/>
    <path d="M400.61,295.64c-1.22,1.27-5.13.94-6.18,2.01-1.9,1.95-1.07,13.58-8.58,12.74-2.1-2.28,9.04-24.15,16.38-21.3.35.34-1.26,6.17-1.63,6.55Z" fill="#ed9961"/>
    <rect x="387.51" y="320.25" width="1.61" height="3.26" fill="#ed9961"/>
    <path d="M404.71,282.52c1.06.55,1.06,1.09,0,1.64v-1.64Z" fill="#ed9961"/>
    <path d="M344.85,130c-10.18.35-21.93,3.12-32.8,1.64h-1.64c.23-1.76,1.15-2.26,1.64-3.28,10.51.98,22.86-2.1,32.8,1.64Z" fill="#3a4f5e"/>
  </g>
  <path d="M166.1,444.88c.22-.15-.06-3.81,2.63-4.7,2.06-.68,15.33-.68,16.7.16s-.02,3.71,5.27,4.54c0,1.09,0,2.19,0,3.28-8.9.91-3.42,15.55-3.78,20.28-.18,2.39-3.16,5.9-2.97,9.04l-17.85.2c-.7-.98-1.82-.62-1.64-3.28,3.01-7.46,1.64-17.82,1.64-26.24v-3.28Z" fill="#e47628"/>
  <path d="M166.1,448.16c0,8.42,1.37,18.78-1.64,26.24-7.92-.22-15.92.31-23.85,0-3.16-.12-6.58,1.69-5.67-3.28,9.82.02,19.7,0,29.52-.02-2.43-5.3-1.89-11.53-1.63-17.28.14-3.16-1.71-6.57,3.27-5.66Z" fill="#d36821"/>
  <path d="M259.57,435.04l-1.62,1.64-.02-3.28c.53.56,1.12,1.07,1.64,1.64Z" fill="#df7125"/>
  <path d="M246.45,446.52l6.57,5.77c-5.11,5.48.89,14.38-5.76,15.54l-56.58,1.65c0-6.54,0-13.14,0-19.69,18.33-2.84,37.38-1.32,55.76-3.28Z" fill="#df7125"/>
  <path d="M236.62,443.24c9.3-.51,18.6-.85,27.88-1.62-2.76,4.16-12.96,4.36-18.04,4.9-18.37,1.96-37.43.44-55.76,3.28v-1.64c0-1.09,0-2.19,0-3.28,12.53,1.96,32.55-.9,45.92-1.64Z" fill="#f38c2c"/>
  <path d="M159.54,385.84c2.4-2.53,2.72-2.74,5.75-6.53,3.85-4.81,11.35-4.43,16.51-1.79l39.27,50.95-1.67,4.92h-92.66v-2.44c5.46-2.58,5.11-8.11,6.56-10.68,6.73-11.93,16.76-24.47,26.24-34.44Z" fill="#2c6169"/>
</svg>